<svg width="23" height="20" viewBox="0 0 23 20" fill="none" xmlns="http://www.w3.org/2000/svg">
<path fill-rule="evenodd" clip-rule="evenodd" d="M8.96435 0.820574C10.5871 0.0598082 12.4128 0.059809 14.0356 0.820575L20.7268 3.95756C21.7791 4.4509 22.25 5.52222 22.25 6.50002C22.25 7.47782 21.7791 8.54915 20.7268 9.04248L19.25 9.73482V14.6254C19.25 15.8785 18.6217 17.0883 17.478 17.7217C16.7263 18.138 15.7384 18.6391 14.6988 19.038C13.6715 19.4321 12.5339 19.75 11.5 19.75C10.4661 19.75 9.32851 19.4321 8.30116 19.038C7.26158 18.6391 6.27371 18.138 5.52198 17.7217C4.37826 17.0883 3.75 15.8785 3.75 14.6254V9.73478L2.27323 9.04244L2.25 9.03141V12C2.25 12.4142 1.91421 12.75 1.5 12.75C1.08579 12.75 0.75 12.4142 0.75 12V6.5C0.75 5.5222 1.22095 4.45085 2.27324 3.95752L8.96435 0.820574ZM5.25 10.438V14.6254C5.25 15.3884 5.62875 16.0661 6.24868 16.4095C6.96533 16.8063 7.88678 17.2724 8.83844 17.6375C9.80234 18.0073 10.7379 18.25 11.5 18.25C12.2621 18.25 13.1977 18.0073 14.1616 17.6375C15.1132 17.2724 16.0347 16.8063 16.7513 16.4095C17.3713 16.0661 17.75 15.3884 17.75 14.6254V10.4381L14.0357 12.1794C12.4129 12.9402 10.5872 12.9402 8.96444 12.1794L5.25 10.438ZM2.90996 7.68429C2.50679 7.49527 2.25 7.04438 2.25 6.49998C2.25 5.95557 2.50679 5.50469 2.90997 5.31567L9.60108 2.17872C10.8204 1.60709 12.1795 1.60709 13.3988 2.17873L20.09 5.31571C20.4932 5.50473 20.75 5.95562 20.75 6.50002C20.75 7.04443 20.4932 7.49531 20.09 7.68433L13.3989 10.8213C12.1796 11.3929 10.8205 11.3929 9.60117 10.8213L2.90996 7.68429Z" fill="#63656B"/>
</svg>
