<svg width="21" height="18" viewBox="0 0 21 18" fill="none" xmlns="http://www.w3.org/2000/svg">
<path d="M12.7172 0.49965C11.2962 -0.16655 9.70372 -0.16655 8.28272 0.499649L1.5916 3.63659C0.515603 4.14105 0.235067 5.56352 0.75 6.54666L0.75 11.5C0.75 11.9142 1.08579 12.25 1.5 12.25C1.91421 12.25 2.25 11.9142 2.25 11.5V7.67204L8.28281 10.5003C9.70381 11.1665 11.2963 11.1665 12.7173 10.5003L19.4084 7.36341C20.8639 6.68105 20.8639 4.31899 19.4084 3.63664L12.7172 0.49965Z" fill="#1D1D20"/>
<path d="M3.5 9.91473V13.6254C3.5 14.6334 4.0035 15.5772 4.88533 16.0656C6.3537 16.8787 8.70399 18 10.5 18C12.296 18 14.6463 16.8787 16.1147 16.0656C16.9965 15.5772 17.5 14.6334 17.5 13.6254V9.91477L13.354 11.8585C11.5296 12.7138 9.4705 12.7138 7.64607 11.8585L3.5 9.91473Z" fill="#1D1D20"/>
</svg>
