<svg width="25" height="24" viewBox="0 0 25 24" fill="none" xmlns="http://www.w3.org/2000/svg">
<g clip-path="url(#clip0_1108_2193)">
<path d="M23.9497 11.8154C23.9497 17.9157 18.9239 22.8808 12.6997 22.8808C6.4755 22.8808 1.44971 17.9157 1.44971 11.8154C1.44971 5.71506 6.4755 0.75 12.6997 0.75C18.9239 0.75 23.9497 5.71506 23.9497 11.8154Z" stroke="#63656B" stroke-width="1.5"/>
<mask id="mask0_1108_2193" style="mask-type:alpha" maskUnits="userSpaceOnUse" x="0" y="0" width="25" height="24">
<path d="M12.6587 23.922C19.2635 23.922 24.6178 18.5677 24.6178 11.9629C24.6178 5.35815 19.2635 0.00390625 12.6587 0.00390625C6.05395 0.00390625 0.699707 5.35815 0.699707 11.9629C0.699707 18.5677 6.05395 23.922 12.6587 23.922Z" fill="white"/>
</mask>
<g mask="url(#mask0_1108_2193)">
<path d="M11.4368 0.00390625L9.31029 18.1817H17.4424L17.3144 19.3775H8.71233H5.4834L5.63476 18.2929L8.2078 0.00390625H11.4368Z" fill="#63656B"/>
</g>
<path d="M21.6675 7.53369L21.5965 8.02984H18.8005L17.5934 16.3952H15.367L16.5741 8.02984H13.5444L13.6154 7.53369H21.6675Z" fill="#63656B"/>
</g>
<defs>
<clipPath id="clip0_1108_2193">
<rect width="24" height="24" fill="white" transform="translate(0.699707)"/>
</clipPath>
</defs>
</svg>
