<svg width="25" height="24" viewBox="0 0 25 24" fill="white" xmlns="http://www.w3.org/2000/svg">
<g clip-path="url(#clip0_1108_1603)">
<path d="M12.6997 23.6308C19.3271 23.6308 24.6997 18.3408 24.6997 11.8154C24.6997 5.28992 19.3271 0 12.6997 0C6.07229 0 0.699707 5.28992 0.699707 11.8154C0.699707 18.3408 6.07229 23.6308 12.6997 23.6308Z" fill="#1D1D20"/>
<mask id="mask0_1108_1603" style="mask-type:alpha" maskUnits="userSpaceOnUse" x="0" y="0" width="25" height="24">
<path d="M12.6997 24C19.3271 24 24.6997 18.6274 24.6997 12C24.6997 5.37258 19.3271 0 12.6997 0C6.07229 0 0.699707 5.37258 0.699707 12C0.699707 18.6274 6.07229 24 12.6997 24Z" fill="#1D1D20"/>
</mask>
<path d="M11.4368 0.00390625L9.31029 18.1817H17.4424L17.3144 19.3775H8.71233H5.4834L5.63476 18.2929L8.2078 0.00390625H11.4368Z" fill="white"/>
<path d="M21.6675 7.53369L21.5965 8.02984H18.8005L17.5934 16.3952H15.367L16.5741 8.02984H13.5444L13.6154 7.53369H21.6675Z" fill="white"/>
</g>
<defs>
<clipPath id="clip0_1108_1603">
<rect width="24" height="24" fill="white" transform="translate(0.699707)"/>
</clipPath>
</defs>

</svg>
