<svg width="33" height="32" viewBox="0 0 33 32" fill="none" xmlns="http://www.w3.org/2000/svg">
    <rect x="0.25" width="32" height="32" rx="16" fill="#12A9D7"/>
    <path d="M9.15246 15.4336C9.15246 15.4336 15.6628 12.6915 17.9206 11.726C18.7862 11.3398 21.7215 10.1039 21.7215 10.1039C21.7215 10.1039 23.0762 9.56326 22.9633 10.8763C22.9257 11.417 22.6246 13.3094 22.3236 15.3563C21.872 18.2529 21.3828 21.4197 21.3828 21.4197C21.3828 21.4197 21.3075 22.308 20.6678 22.4625C20.0281 22.617 18.9743 21.9218 18.7862 21.7673C18.6356 21.6515 15.9638 19.9135 14.9854 19.0639C14.7219 18.8322 14.4209 18.3688 15.023 17.828C16.3778 16.5536 17.9959 14.9701 18.9743 13.966C19.4259 13.5025 19.8775 12.4212 17.9959 13.7342C15.3241 15.6267 12.6898 17.4032 12.6898 17.4032C12.6898 17.4032 12.0877 17.7894 10.9588 17.4418C9.82979 17.0943 8.51268 16.6308 8.51268 16.6308C8.51268 16.6308 7.60957 16.0515 9.15246 15.4336Z" fill="white"/>
</svg>
