<svg width="32" height="32" viewBox="0 0 32 32" fill="none" xmlns="http://www.w3.org/2000/svg">
    <rect width="32" height="32" rx="16" fill="#2787F5"/>
    <path fill-rule="evenodd" clip-rule="evenodd" d="M25.337 11.3926C25.4722 10.9695 25.337 10.6587 24.6933 10.6587H22.5651C22.024 10.6587 21.7745 10.9272 21.6392 11.2233C21.6392 11.2233 20.5569 13.698 19.0237 15.3054C18.5277 15.7707 18.3022 15.9188 18.0316 15.9188C17.8963 15.9188 17.7005 15.7707 17.7005 15.3477V11.3926C17.7005 10.8849 17.5434 10.6587 17.0925 10.6587H13.7481C13.4099 10.6587 13.2065 10.8943 13.2065 11.1176C13.2065 11.5988 13.9731 11.7098 14.0521 13.0635V16.0034C14.0521 16.648 13.928 16.7649 13.6574 16.7649C12.9359 16.7649 11.1809 14.2792 10.14 11.4348C9.93605 10.882 9.73145 10.6587 9.18753 10.6587H7.05928C6.45121 10.6587 6.32959 10.9272 6.32959 11.2233C6.32959 11.7521 7.05111 14.3748 9.68912 17.8435C11.4478 20.2124 13.9256 21.4965 16.1803 21.4965C17.5332 21.4965 17.7005 21.2113 17.7005 20.72V18.9296C17.7005 18.3592 17.8287 18.2454 18.2571 18.2454C18.5727 18.2454 19.1139 18.3934 20.3765 19.5356C21.8196 20.8892 22.0575 21.4965 22.8691 21.4965H24.9974C25.6055 21.4965 25.9095 21.2113 25.7341 20.6485C25.5422 20.0875 24.8532 19.2736 23.939 18.3088C23.4429 17.7589 22.6989 17.1667 22.4734 16.8706C22.1578 16.4899 22.248 16.3206 22.4734 15.9823C22.4734 15.9823 25.0664 12.5558 25.337 11.3926Z" fill="white"/>
</svg>
