<svg width="33" height="32" viewBox="0 0 33 32" fill="none" xmlns="http://www.w3.org/2000/svg">
    <path d="M0.25 16C0.25 24.8366 7.41344 32 16.25 32C25.0866 32 32.25 24.8366 32.25 16C32.25 7.16344 25.0866 0 16.25 0C7.41344 0 0.25 7.16344 0.25 16Z" fill="#25D366"/>
    <path fill-rule="evenodd" clip-rule="evenodd" d="M21.85 10.3C20.35 8.8 18.35 8 16.25 8C11.85 8 8.25 11.6 8.25 16C8.25 17.4 8.65001 18.8 9.35001 20L8.25 24L12.45 22.9C13.65 23.5 14.95 23.9 16.25 23.9C20.65 23.9 24.25 20.3 24.25 15.9C24.25 13.8 23.35 11.8 21.85 10.3ZM16.25 22.6C15.05 22.6 13.85 22.3 12.85 21.7L12.65 21.6L10.15 22.3L10.85 19.9L10.65 19.6C9.94999 18.5 9.64999 17.3 9.64999 16.1C9.64999 12.5 12.65 9.5 16.25 9.5C18.05 9.5 19.65 10.2 20.95 11.4C22.25 12.7 22.85 14.3 22.85 16.1C22.85 19.6 19.95 22.6 16.25 22.6ZM19.85 17.6C19.65 17.5 18.65 17 18.45 17C18.25 16.9 18.15 16.9 18.05 17.1C17.95 17.3 17.55 17.7 17.45 17.9C17.35 18 17.25 18 17.05 18C16.85 17.9 16.25 17.7 15.45 17C14.85 16.5 14.45 15.8 14.35 15.6C14.25 15.4 14.35 15.3 14.45 15.2C14.55 15.1 14.65 15 14.75 14.9C14.85 14.8 14.85 14.7 14.95 14.6C15.05 14.5 14.95 14.4 14.95 14.3C14.95 14.2 14.55 13.2 14.35 12.8C14.25 12.5 14.05 12.5 13.95 12.5C13.85 12.5 13.75 12.5 13.55 12.5C13.45 12.5 13.25 12.5 13.05 12.7C12.85 12.9 12.35 13.4 12.35 14.4C12.35 15.4 13.05 16.3 13.15 16.5C13.25 16.6 14.55 18.7 16.55 19.5C18.25 20.2 18.55 20 18.95 20C19.35 20 20.15 19.5 20.25 19.1C20.45 18.6 20.45 18.2 20.35 18.2C20.25 17.7 20.05 17.7 19.85 17.6Z" fill="white"/>
</svg>
