<svg width="25" height="24" viewBox="0 0 25 24" fill="none" xmlns="http://www.w3.org/2000/svg">
<path d="M7.1001 12C7.1001 13.1046 6.20467 14 5.1001 14C3.99553 14 3.1001 13.1046 3.1001 12C3.1001 10.8954 3.99553 10 5.1001 10C6.20467 10 7.1001 10.8954 7.1001 12Z" fill="#63656B"/>
<path d="M14.1001 12C14.1001 13.1046 13.2047 14 12.1001 14C10.9955 14 10.1001 13.1046 10.1001 12C10.1001 10.8954 10.9955 10 12.1001 10C13.2047 10 14.1001 10.8954 14.1001 12Z" fill="#63656B"/>
<path d="M21.1001 12C21.1001 13.1046 20.2047 14 19.1001 14C17.9955 14 17.1001 13.1046 17.1001 12C17.1001 10.8954 17.9955 10 19.1001 10C20.2047 10 21.1001 10.8954 21.1001 12Z" fill="#63656B"/>
</svg>
