<svg width="21" height="20" viewBox="0 0 21 20" fill="none" xmlns="http://www.w3.org/2000/svg">
<path fill-rule="evenodd" clip-rule="evenodd" d="M1.4191 5.82274C0.899902 6.77128 0.899902 7.91549 0.899902 10.2039V11.725C0.899902 15.6258 0.899902 17.5763 2.07148 18.7881C3.24305 20 5.12867 20 8.8999 20H12.8999C16.6711 20 18.5568 20 19.7283 18.7881C20.8999 17.5763 20.8999 15.6258 20.8999 11.725V10.2039C20.8999 7.91549 20.8999 6.77128 20.3807 5.82274C19.8615 4.87421 18.913 4.28551 17.0159 3.10812L15.0159 1.86687C13.0105 0.62229 12.0078 0 10.8999 0C9.79197 0 8.78929 0.62229 6.78393 1.86687L4.78394 3.10813C2.88685 4.28551 1.9383 4.87421 1.4191 5.82274ZM7.8999 15.25C7.48569 15.25 7.1499 15.5858 7.1499 16C7.1499 16.4142 7.48569 16.75 7.8999 16.75H13.8999C14.3141 16.75 14.6499 16.4142 14.6499 16C14.6499 15.5858 14.3141 15.25 13.8999 15.25H7.8999Z" fill="#1D1D20"/>
</svg>
