<svg width="22" height="22" viewBox="0 0 22 22" fill="none" xmlns="http://www.w3.org/2000/svg">
<path d="M7.8999 16.25C7.48569 16.25 7.1499 16.5858 7.1499 17C7.1499 17.4142 7.48569 17.75 7.8999 17.75H13.8999C14.3141 17.75 14.6499 17.4142 14.6499 17C14.6499 16.5858 14.3141 16.25 13.8999 16.25H7.8999Z" fill="#63656B"/>
<path fill-rule="evenodd" clip-rule="evenodd" d="M10.8999 0.25C10.1918 0.25 9.54843 0.45282 8.85046 0.79224C8.17575 1.12035 7.39632 1.60409 6.42276 2.20832L4.35619 3.4909C3.43499 4.06261 2.69735 4.5204 2.1288 4.95581C1.54005 5.40669 1.08785 5.86589 0.761212 6.46263C0.435257 7.05812 0.28847 7.69174 0.218092 8.4407C0.149888 9.16654 0.149895 10.0541 0.149903 11.1672V12.7799C0.149889 14.6837 0.149878 16.1866 0.302606 17.3616C0.459275 18.567 0.788465 19.5401 1.53226 20.3094C2.27949 21.0824 3.23036 21.4277 4.40751 21.5914C5.54839 21.75 7.00546 21.75 8.84175 21.75H12.958C14.7943 21.75 16.2514 21.75 17.3923 21.5914C18.5694 21.4277 19.5203 21.0824 20.2675 20.3094C21.0113 19.5401 21.3405 18.567 21.4972 17.3616C21.6499 16.1866 21.6499 14.6838 21.6499 12.7799V11.1672C21.6499 10.0541 21.6499 9.16652 21.5817 8.4407C21.5113 7.69174 21.3645 7.05812 21.0386 6.46263C20.712 5.86589 20.2598 5.40669 19.671 4.95581C19.1025 4.5204 18.3648 4.06262 17.4436 3.49091L15.377 2.20831C14.4035 1.60409 13.6241 1.12034 12.9493 0.79224C12.2514 0.452819 11.608 0.25 10.8999 0.25ZM7.17943 3.50412C8.19519 2.87371 8.9094 2.43153 9.50644 2.1412C10.0881 1.85833 10.5001 1.75 10.8999 1.75C11.2997 1.75 11.7117 1.85833 12.2934 2.14119C12.8904 2.43153 13.6046 2.87371 14.6204 3.50412L16.6204 4.74537C17.5812 5.34169 18.2558 5.76135 18.759 6.1467C19.2486 6.52164 19.5302 6.83106 19.7228 7.18285C19.9161 7.53589 20.0289 7.94865 20.0883 8.58104C20.1491 9.22859 20.1499 10.0458 20.1499 11.2039V12.725C20.1499 14.6959 20.1484 16.1012 20.0097 17.1683C19.8735 18.2163 19.6169 18.8244 19.1891 19.2669C18.7648 19.7058 18.187 19.9664 17.1857 20.1057C16.1601 20.2483 14.8074 20.25 12.8999 20.25H8.8999C6.99237 20.25 5.63973 20.2483 4.61412 20.1057C3.61276 19.9664 3.03504 19.7058 2.61069 19.2669C2.18291 18.8244 1.92632 18.2163 1.79009 17.1683C1.65139 16.1012 1.6499 14.6959 1.6499 12.725V11.2039C1.6499 10.0458 1.65067 9.22859 1.71151 8.58104C1.77094 7.94865 1.88375 7.53589 2.07699 7.18285C2.26956 6.83106 2.55123 6.52164 3.04082 6.1467C3.544 5.76135 4.2186 5.34169 5.17943 4.74537L7.17943 3.50412Z" fill="#63656B"/>
</svg>
