<svg width="25" height="24" viewBox="0 0 25 24" fill="none" xmlns="http://www.w3.org/2000/svg">
<path fill-rule="evenodd" clip-rule="evenodd" d="M16.6937 2.02121L16.7602 2.03904C17.8596 2.33361 18.7308 2.56704 19.416 2.81458C20.117 3.06779 20.6886 3.35744 21.1595 3.79847C21.8451 4.44068 22.325 5.27179 22.5383 6.18671C22.6848 6.81503 22.6499 7.45486 22.5187 8.18849C22.3904 8.90573 22.157 9.77697 21.8624 10.8764L21.3269 12.8747C21.0324 13.974 20.7989 14.8452 20.5514 15.5305C20.2982 16.2314 20.0085 16.803 19.5675 17.2739C18.9457 17.9377 18.1469 18.4087 17.2663 18.6316C17.0091 19.2213 16.6334 19.7554 16.1595 20.1993C15.6886 20.6403 15.117 20.9299 14.416 21.1832C13.7308 21.4307 12.8596 21.6641 11.7603 21.9587L11.6938 21.9765C10.5944 22.2711 9.72318 22.5045 9.00594 22.6328C8.2723 22.764 7.63247 22.7989 7.00415 22.6524C6.08923 22.4391 5.25812 21.9592 4.61591 21.2736C4.17488 20.8027 3.88523 20.2311 3.63202 19.5302C3.38448 18.8449 3.15105 17.9737 2.85648 16.8743L2.32103 14.876C2.02644 13.7766 1.793 12.9054 1.66475 12.1882C1.53356 11.4546 1.49862 10.8147 1.64512 10.1864C1.85845 9.27149 2.33829 8.44038 3.02397 7.79817C3.49485 7.35714 4.06644 7.06749 4.76738 6.81428C5.45263 6.56674 6.32384 6.3333 7.42321 6.03873L7.45646 6.02983C7.72092 5.95896 7.97115 5.89203 8.20806 5.82944C8.59967 4.43031 8.94428 3.44126 9.61591 2.72417C10.2581 2.03849 11.0892 1.55864 12.0042 1.34531C12.6325 1.19881 13.2723 1.23376 14.0059 1.36495C14.7231 1.49319 15.5943 1.72664 16.6937 2.02121ZM7.75482 7.5028C6.66194 7.79571 5.87886 8.00764 5.27701 8.22505C4.66759 8.4452 4.30976 8.64907 4.04936 8.89296C3.58021 9.33237 3.2519 9.90103 3.10593 10.527C3.02492 10.8745 3.02727 11.2863 3.14133 11.9242C3.25703 12.5712 3.47336 13.381 3.77882 14.521L4.29646 16.4529C4.60192 17.5929 4.81947 18.4023 5.0428 19.0205C5.26294 19.63 5.46682 19.9878 5.71071 20.2482C6.15011 20.7173 6.71877 21.0456 7.34477 21.1916C7.69223 21.2726 8.10405 21.2703 8.7419 21.1562C9.38896 21.0405 10.1987 20.8242 11.3387 20.5187C12.4788 20.2132 13.2882 19.9957 13.9064 19.7724C14.5158 19.5522 14.8737 19.3484 15.1341 19.1045C15.2717 18.9756 15.3971 18.8357 15.5094 18.6865C15.3304 18.6612 15.1461 18.629 14.9555 18.5911C14.2837 18.4575 13.4767 18.2413 12.4806 17.9744L12.4232 17.959C11.3238 17.6644 10.4526 17.431 9.76738 17.1835C9.06644 16.9302 8.49485 16.6406 8.02397 16.1996C7.33829 15.5574 6.85845 14.7262 6.64512 13.8113C6.49861 13.183 6.53356 12.5432 6.66475 11.8095C6.793 11.0923 7.02644 10.2211 7.32103 9.12174L7.75482 7.5028ZM13.7419 2.84152C13.1041 2.72747 12.6922 2.72511 12.3448 2.80613C11.7188 2.95209 11.1501 3.2804 10.7107 3.74955C10.2746 4.21518 10.0062 4.93452 9.5395 6.64323C9.46365 6.92093 9.38345 7.22023 9.29646 7.54488L8.77882 9.47673C8.47336 10.6167 8.25703 11.4265 8.14133 12.0736C8.02727 12.7114 8.02492 13.1232 8.10593 13.4707C8.25189 14.0967 8.58021 14.6654 9.04936 15.1048C9.30976 15.3487 9.66759 15.5525 10.277 15.7727C10.8952 15.996 11.7047 16.2136 12.8447 16.519C13.8701 16.7938 14.6301 16.997 15.248 17.1199C15.8633 17.2422 16.2808 17.2723 16.623 17.23C16.6974 17.2209 16.7689 17.2082 16.8387 17.1919C17.4647 17.0459 18.0333 16.7176 18.4727 16.2485C18.7166 15.9881 18.9205 15.6303 19.1406 15.0208C19.364 14.4026 19.5815 13.5932 19.887 12.4532L20.4046 10.5213C20.7101 9.38129 20.9264 8.57151 21.0421 7.92446C21.1562 7.28661 21.1585 6.87479 21.0775 6.52733C20.9315 5.90133 20.6032 5.33267 20.1341 4.89327C19.8737 4.64937 19.5158 4.4455 18.9064 4.22535C18.2882 4.00203 17.4788 3.78448 16.3387 3.47902C15.1987 3.17355 14.389 2.95723 13.7419 2.84152ZM11.3522 9.80588C11.4594 9.40578 11.8707 9.16834 12.2708 9.27555L17.1004 10.5696C17.5005 10.6768 17.7379 11.0881 17.6307 11.4882C17.5235 11.8883 17.1123 12.1257 16.7122 12.0185L11.8825 10.7244C11.4824 10.6172 11.245 10.206 11.3522 9.80588ZM10.5754 12.7036C10.6826 12.3035 11.0938 12.066 11.4939 12.1733L14.3917 12.9497C14.7918 13.0569 15.0292 13.4682 14.922 13.8683C14.8148 14.2684 14.4036 14.5058 14.0035 14.3986L11.1057 13.6221C10.7056 13.5149 10.4681 13.1037 10.5754 12.7036Z" fill="#63656B"/>
</svg>
