<svg width="25" height="24" viewBox="0 0 25 24" fill="none" xmlns="http://www.w3.org/2000/svg">
<path d="M3.05438 14.716L3.57202 16.6479C4.17627 18.9029 4.47839 20.0305 5.16332 20.7618C5.70412 21.3392 6.40401 21.7433 7.17447 21.9229C8.15024 22.1504 9.27778 21.8483 11.5329 21.244C13.7879 20.6398 14.9155 20.3377 15.6468 19.6528C15.7075 19.5959 15.7662 19.5373 15.8231 19.477C15.4889 19.449 15.1518 19.3952 14.8092 19.3271C14.1131 19.1887 13.286 18.967 12.3078 18.7049L12.201 18.6763L12.1763 18.6697C11.1119 18.3845 10.2226 18.1457 9.51257 17.8892C8.76588 17.6195 8.08741 17.287 7.51128 16.7474C6.71734 16.0038 6.16173 15.0414 5.91472 13.982C5.73547 13.2133 5.78672 12.4594 5.92647 11.6779C6.06039 10.929 6.3009 10.0315 6.58906 8.95613L6.58906 8.95611L7.12346 6.96174L7.14225 6.8916C5.22171 7.40896 4.21081 7.71505 3.53667 8.34646C2.95926 8.88726 2.55518 9.58715 2.37553 10.3576C2.14801 11.3334 2.45014 12.4609 3.05438 14.716Z" fill="#1D1D20"/>
<path fill-rule="evenodd" clip-rule="evenodd" d="M21.1291 10.7154L20.6114 12.6473C20.0072 14.9024 19.705 16.0299 19.0201 16.7612C18.4793 17.3386 17.7794 17.7427 17.009 17.9223C16.9127 17.9448 16.815 17.9621 16.7148 17.9744C15.7997 18.0873 14.6832 17.7881 12.6506 17.2435C10.3955 16.6392 9.26796 16.3371 8.53667 15.6522C7.95926 15.1114 7.55518 14.4115 7.37553 13.641C7.14801 12.6652 7.45014 11.5377 8.05438 9.28263L8.57202 7.35077C8.6589 7.02654 8.73959 6.7254 8.81601 6.44561C9.27109 4.77957 9.5769 3.86298 10.1633 3.23687C10.7041 2.65945 11.404 2.25537 12.1745 2.07573C13.1502 1.84821 14.2778 2.15033 16.5329 2.75458C18.7879 3.35883 19.9155 3.66095 20.6468 4.34587C21.2242 4.88668 21.6283 5.58657 21.8079 6.35703C22.0354 7.3328 21.7333 8.46034 21.1291 10.7154ZM11.3522 9.80589C11.4594 9.40579 11.8707 9.16835 12.2708 9.27556L17.1004 10.5697C17.5005 10.6769 17.7379 11.0881 17.6307 11.4882C17.5235 11.8883 17.1123 12.1257 16.7122 12.0185L11.8825 10.7244C11.4824 10.6172 11.245 10.206 11.3522 9.80589ZM10.5754 12.7033C10.6826 12.3032 11.0938 12.0658 11.4939 12.173L14.3917 12.9495C14.7918 13.0567 15.0292 13.4679 14.922 13.868C14.8148 14.2681 14.4036 14.5056 14.0035 14.3984L11.1057 13.6219C10.7056 13.5147 10.4682 13.1034 10.5754 12.7033Z" fill="#1D1D20"/>
</svg>
