<svg width="16" height="17" viewBox="0 0 16 17" fill="none" xmlns="http://www.w3.org/2000/svg">
<path d="M11.3335 9.83342C11.7017 9.83342 12.0002 9.53494 12.0002 9.16675C12.0002 8.79856 11.7017 8.50008 11.3335 8.50008C10.9653 8.50008 10.6668 8.79856 10.6668 9.16675C10.6668 9.53494 10.9653 9.83342 11.3335 9.83342Z" fill="#63656B"/>
<path d="M11.3335 12.5001C11.7017 12.5001 12.0002 12.2016 12.0002 11.8334C12.0002 11.4652 11.7017 11.1667 11.3335 11.1667C10.9653 11.1667 10.6668 11.4652 10.6668 11.8334C10.6668 12.2016 10.9653 12.5001 11.3335 12.5001Z" fill="#63656B"/>
<path d="M8.66683 9.16675C8.66683 9.53494 8.36835 9.83342 8.00016 9.83342C7.63197 9.83342 7.3335 9.53494 7.3335 9.16675C7.3335 8.79856 7.63197 8.50008 8.00016 8.50008C8.36835 8.50008 8.66683 8.79856 8.66683 9.16675Z" fill="#63656B"/>
<path d="M8.66683 11.8334C8.66683 12.2016 8.36835 12.5001 8.00016 12.5001C7.63197 12.5001 7.3335 12.2016 7.3335 11.8334C7.3335 11.4652 7.63197 11.1667 8.00016 11.1667C8.36835 11.1667 8.66683 11.4652 8.66683 11.8334Z" fill="#63656B"/>
<path d="M4.66683 9.83342C5.03502 9.83342 5.3335 9.53494 5.3335 9.16675C5.3335 8.79856 5.03502 8.50008 4.66683 8.50008C4.29864 8.50008 4.00016 8.79856 4.00016 9.16675C4.00016 9.53494 4.29864 9.83342 4.66683 9.83342Z" fill="#63656B"/>
<path d="M4.66683 12.5001C5.03502 12.5001 5.3335 12.2016 5.3335 11.8334C5.3335 11.4652 5.03502 11.1667 4.66683 11.1667C4.29864 11.1667 4.00016 11.4652 4.00016 11.8334C4.00016 12.2016 4.29864 12.5001 4.66683 12.5001Z" fill="#63656B"/>
<path fill-rule="evenodd" clip-rule="evenodd" d="M4.66683 1.66675C4.94297 1.66675 5.16683 1.89061 5.16683 2.16675V2.67523C5.60816 2.66674 6.09438 2.66674 6.62913 2.66675H9.37111C9.90587 2.66674 10.3922 2.66674 10.8335 2.67523V2.16675C10.8335 1.89061 11.0574 1.66675 11.3335 1.66675C11.6096 1.66675 11.8335 1.89061 11.8335 2.16675V2.71814C12.0068 2.73135 12.1709 2.74796 12.3262 2.76884C13.1078 2.87392 13.7404 3.09533 14.2393 3.59424C14.7382 4.09315 14.9597 4.72578 15.0647 5.5074C15.1668 6.26687 15.1668 7.23728 15.1668 8.46244V9.87102C15.1668 11.0962 15.1668 12.0666 15.0647 12.8261C14.9597 13.6077 14.7382 14.2403 14.2393 14.7393C13.7404 15.2382 13.1078 15.4596 12.3262 15.5647C11.5667 15.6668 10.5963 15.6668 9.37113 15.6667H6.62922C5.40406 15.6668 4.43362 15.6668 3.67415 15.5647C2.89253 15.4596 2.2599 15.2382 1.76099 14.7393C1.26208 14.2403 1.04067 13.6077 0.935586 12.8261C0.833478 12.0666 0.833486 11.0962 0.833496 9.87103V8.46247C0.833486 7.2373 0.833478 6.26688 0.935586 5.5074C1.04067 4.72578 1.26208 4.09315 1.76099 3.59424C2.2599 3.09533 2.89253 2.87392 3.67415 2.76884C3.82943 2.74796 3.99353 2.73135 4.16683 2.71814V2.16675C4.16683 1.89061 4.39069 1.66675 4.66683 1.66675ZM3.8074 3.75992C3.13667 3.8501 2.75024 4.01921 2.4681 4.30135C2.18596 4.58349 2.01685 4.96992 1.92667 5.64065C1.9114 5.75424 1.89863 5.87382 1.88795 6.00008H14.1124C14.1017 5.87382 14.0889 5.75424 14.0737 5.64065C13.9835 4.96992 13.8144 4.58349 13.5322 4.30135C13.2501 4.01921 12.8637 3.8501 12.1929 3.75992C11.5078 3.66781 10.6047 3.66675 9.3335 3.66675H6.66683C5.39562 3.66675 4.49251 3.66781 3.8074 3.75992ZM1.8335 8.50008C1.8335 7.93074 1.83371 7.43523 1.84222 7.00008H14.1581C14.1666 7.43523 14.1668 7.93074 14.1668 8.50008V9.83342C14.1668 11.1046 14.1658 12.0077 14.0737 12.6928C13.9835 13.3636 13.8144 13.75 13.5322 14.0321C13.2501 14.3143 12.8637 14.4834 12.1929 14.5736C11.5078 14.6657 10.6047 14.6667 9.3335 14.6667H6.66683C5.39562 14.6667 4.4925 14.6657 3.8074 14.5736C3.13667 14.4834 2.75024 14.3143 2.4681 14.0321C2.18596 13.75 2.01685 13.3636 1.92667 12.6928C1.83456 12.0077 1.8335 11.1046 1.8335 9.83342V8.50008Z" fill="#63656B"/>
</svg>
