<svg width="20" height="20" viewBox="0 0 20 20" fill="none" xmlns="http://www.w3.org/2000/svg">
    <path fill-rule="evenodd" clip-rule="evenodd" d="M1.87348 1.91055C1.54785 1.79606 1.19105 1.96723 1.07657 2.29287C0.962078 2.61851 1.13325 2.9753 1.45889 3.08979L1.67656 3.16632C2.2329 3.36192 2.59853 3.49154 2.86757 3.62355C3.12025 3.74754 3.23165 3.8479 3.30503 3.95528C3.38025 4.06535 3.43833 4.21654 3.47111 4.51933C3.5054 4.83617 3.50625 5.24885 3.50625 5.86547V8.1335C3.50625 9.34394 3.51761 10.2167 3.63182 10.8836C3.75376 11.5955 3.9972 12.1052 4.4524 12.5853C4.94728 13.1073 5.57462 13.3345 6.32148 13.4405C7.03668 13.5419 7.94488 13.5419 9.06631 13.5418L13.5711 13.5418C14.1891 13.5419 14.7092 13.5419 15.13 13.4904C15.5765 13.4357 15.9836 13.3163 16.339 13.0267C16.6944 12.737 16.8936 12.3624 17.0372 11.9361C17.1726 11.5344 17.2776 11.0251 17.4023 10.4197L17.8265 8.36196L17.8272 8.35813L17.8359 8.31456C17.9732 7.62715 18.0886 7.04891 18.1173 6.58382C18.1475 6.09532 18.0919 5.61364 17.7736 5.19999C17.5779 4.94547 17.3026 4.80138 17.0521 4.71339C16.7967 4.62365 16.5079 4.57173 16.2165 4.53915C15.6439 4.47515 14.9484 4.47516 14.2662 4.47517L4.72276 4.47517C4.72002 4.44454 4.71705 4.41442 4.71385 4.38481C4.66907 3.97116 4.57206 3.5939 4.33707 3.25003C4.10026 2.90348 3.78538 2.68153 3.41819 2.50136C3.07478 2.33286 2.63842 2.17946 2.12465 1.99885L1.87348 1.91055ZM4.75625 5.72517H14.2402C14.9539 5.72517 15.5819 5.72601 16.0776 5.78141C16.3239 5.80895 16.5082 5.8472 16.6378 5.89271C16.7436 5.92991 16.7795 5.96028 16.7846 5.96468C16.7845 5.96459 16.7849 5.96486 16.7846 5.96468C16.8358 6.03252 16.8914 6.1556 16.8697 6.50681C16.8469 6.87645 16.7498 7.37 16.6018 8.11161L16.6014 8.11346L16.1857 10.1302C16.0513 10.7826 15.9608 11.2162 15.8527 11.537C15.7501 11.8414 15.6537 11.9726 15.5494 12.0577C15.445 12.1427 15.2971 12.2106 14.9782 12.2496C14.6422 12.2907 14.1992 12.2918 13.5332 12.2918H9.11408C7.93343 12.2918 7.11421 12.2904 6.49699 12.2028C5.90131 12.1184 5.58662 11.9648 5.3595 11.7253C5.0927 11.4439 4.94879 11.1683 4.86388 10.6726C4.77125 10.1317 4.75625 9.37437 4.75625 8.1335L4.75625 5.72517Z" fill="#333539"/>
    <path fill-rule="evenodd" clip-rule="evenodd" d="M6.24952 18.1252C5.21399 18.1252 4.37452 17.2857 4.37452 16.2502C4.37452 15.2146 5.21399 14.3752 6.24952 14.3752C7.28505 14.3752 8.12452 15.2146 8.12452 16.2502C8.12452 17.2857 7.28505 18.1252 6.24952 18.1252ZM5.62452 16.2502C5.62452 16.5953 5.90434 16.8752 6.24952 16.8752C6.5947 16.8752 6.87452 16.5953 6.87452 16.2502C6.87452 15.905 6.5947 15.6252 6.24952 15.6252C5.90434 15.6252 5.62452 15.905 5.62452 16.2502Z" fill="#333539"/>
    <path fill-rule="evenodd" clip-rule="evenodd" d="M13.7495 18.1252C12.714 18.1252 11.8745 17.2858 11.8745 16.2502C11.8745 15.2147 12.714 14.3752 13.7495 14.3752C14.7851 14.3752 15.6245 15.2147 15.6245 16.2502C15.6245 17.2858 14.7851 18.1252 13.7495 18.1252ZM13.1245 16.2502C13.1245 16.5954 13.4043 16.8752 13.7495 16.8752C14.0947 16.8752 14.3745 16.5954 14.3745 16.2502C14.3745 15.9051 14.0947 15.6252 13.7495 15.6252C13.4043 15.6252 13.1245 15.9051 13.1245 16.2502Z" fill="#333539"/>
</svg>
