<svg width="16" height="16" viewBox="0 0 16 16" fill="none" xmlns="http://www.w3.org/2000/svg">
    <g clip-path="url(#clip0_1947_41947)">
        <path fill-rule="evenodd" clip-rule="evenodd" d="M5.29643 0.833374H10.7029C11.6147 0.833361 12.3495 0.83335 12.9275 0.911057C13.5276 0.991734 14.0328 1.16433 14.4341 1.56561C14.8354 1.96689 15.008 2.47214 15.0887 3.07221C15.1664 3.65019 15.1664 4.38507 15.1663 5.2968V8.03662C15.1664 8.94835 15.1664 9.68323 15.0887 10.2612C15.008 10.8613 14.8354 11.3665 14.4341 11.7678C14.1022 12.0998 13.6976 12.2764 13.2237 12.3729C12.7636 12.4666 12.2086 12.4902 11.5514 12.4972L11.5477 12.4972L11.398 12.4977C11.3336 12.7005 11.2287 12.8934 11.0833 13.0639C10.9959 13.1664 10.9431 13.2939 10.9324 13.4282C10.8683 14.2311 10.2308 14.8687 9.42787 14.9328C9.29358 14.9435 9.16608 14.9963 9.06355 15.0837C8.4505 15.6061 7.54885 15.6061 6.93581 15.0837C6.83327 14.9963 6.70578 14.9435 6.57148 14.9328C5.76858 14.8687 5.13101 14.2311 5.06694 13.4282C5.05623 13.2939 5.00342 13.1664 4.91603 13.0639C4.77089 12.8936 4.66607 12.701 4.60157 12.4985C3.90802 12.4938 3.32748 12.475 2.85058 12.3874C2.34524 12.2946 1.9152 12.1178 1.56524 11.7678C1.16396 11.3665 0.991368 10.8613 0.910691 10.2612C0.832983 9.68323 0.832994 8.94835 0.833008 8.03662V5.29679C0.832994 4.38507 0.832983 3.65019 0.91069 3.07221C0.991368 2.47214 1.16396 1.96689 1.56524 1.56561C1.96652 1.16433 2.47177 0.991734 3.07184 0.911057C3.64982 0.83335 4.3847 0.833361 5.29643 0.833374ZM4.60257 11.4985C4.66714 11.2971 4.77163 11.1056 4.91603 10.9362C5.00342 10.8336 5.05623 10.7061 5.06694 10.5718C5.13101 9.76895 5.76858 9.13138 6.57148 9.06731C6.70578 9.05659 6.83327 9.00378 6.93581 8.9164C7.54885 8.39397 8.4505 8.39397 9.06355 8.9164C9.16608 9.00378 9.29358 9.05659 9.42787 9.06731C10.2308 9.13138 10.8683 9.76895 10.9324 10.5718C10.9431 10.7061 10.9959 10.8336 11.0833 10.9362C11.2275 11.1054 11.3319 11.2966 11.3965 11.4977L11.5426 11.4972C12.1995 11.4902 12.6678 11.4656 13.0242 11.393C13.3672 11.3232 13.5724 11.2153 13.727 11.0607C13.9115 10.8762 14.0318 10.6171 14.0976 10.128C14.1653 9.62439 14.1663 8.95699 14.1663 8.00004V5.33337C14.1663 4.37643 14.1653 3.70902 14.0976 3.20545C14.0318 2.71627 13.9115 2.45722 13.727 2.27271C13.5425 2.08821 13.2834 1.96791 12.7943 1.90214C12.2907 1.83444 11.6233 1.83337 10.6663 1.83337H5.33301C4.37606 1.83337 3.70866 1.83444 3.20509 1.90214C2.71591 1.96791 2.45686 2.08821 2.27235 2.27271C2.08784 2.45722 1.96754 2.71627 1.90177 3.20546C1.83407 3.70902 1.83301 4.37643 1.83301 5.33337V8.00004C1.83301 8.95699 1.83407 9.62439 1.90177 10.128C1.96754 10.6171 2.08784 10.8762 2.27235 11.0607C2.43465 11.223 2.65337 11.3345 3.03124 11.4039C3.41136 11.4737 3.90851 11.4936 4.60257 11.4985ZM5.49968 4.00004C5.49968 3.7239 5.72353 3.50004 5.99968 3.50004H9.99968C10.2758 3.50004 10.4997 3.7239 10.4997 4.00004C10.4997 4.27618 10.2758 4.50004 9.99968 4.50004H5.99968C5.72353 4.50004 5.49968 4.27618 5.49968 4.00004ZM4.16634 6.33337C4.16634 6.05723 4.3902 5.83337 4.66634 5.83337H11.333C11.6092 5.83337 11.833 6.05723 11.833 6.33337C11.833 6.60952 11.6092 6.83337 11.333 6.83337H4.66634C4.3902 6.83337 4.16634 6.60952 4.16634 6.33337ZM8.41493 9.67752C8.17564 9.4736 7.82371 9.4736 7.58442 9.67752C7.32172 9.90139 6.99509 10.0367 6.65103 10.0641C6.33764 10.0891 6.08878 10.338 6.06377 10.6514C6.03632 10.9955 5.90102 11.3221 5.67715 11.5848C5.47323 11.8241 5.47323 12.176 5.67715 12.4153C5.90102 12.678 6.03632 13.0046 6.06377 13.3487C6.08878 13.6621 6.33764 13.9109 6.65103 13.9359C6.99509 13.9634 7.32172 14.0987 7.58442 14.3226C7.82371 14.5265 8.17564 14.5265 8.41493 14.3226C8.67763 14.0987 9.00426 13.9634 9.34832 13.9359C9.66171 13.9109 9.91057 13.6621 9.93558 13.3487C9.96303 13.0046 10.0983 12.678 10.3222 12.4153C10.5261 12.176 10.5261 11.8241 10.3222 11.5848C10.0983 11.3221 9.96303 10.9955 9.93558 10.6514C9.91057 10.338 9.66171 10.0891 9.34832 10.0641C9.00426 10.0367 8.67763 9.90139 8.41493 9.67752ZM8.65852 10.9678C8.86039 10.7794 9.17679 10.7903 9.3652 10.9922C9.55362 11.1941 9.54271 11.5105 9.34083 11.6989L7.91226 13.0322C7.72016 13.2115 7.42205 13.2115 7.22995 13.0322L6.65852 12.4989C6.45664 12.3105 6.44573 11.9941 6.63415 11.7922C6.82256 11.5903 7.13896 11.5794 7.34083 11.7678L7.5711 11.9828L8.65852 10.9678Z" fill="#1C274D"/>
    </g>
    <defs>
        <clipPath id="clip0_1947_41947">
            <rect width="16" height="16" fill="white"/>
        </clipPath>
    </defs>
</svg>
