<svg width="18" height="17" viewBox="0 0 18 17" fill="none" xmlns="http://www.w3.org/2000/svg">
    <path fill-rule="evenodd" clip-rule="evenodd" d="M17.3334 8.50033C17.3334 13.1027 13.6025 16.8337 9.00008 16.8337C4.39771 16.8337 0.666748 13.1027 0.666748 8.50033C0.666748 3.89795 4.39771 0.166992 9.00008 0.166992C13.6025 0.166992 17.3334 3.89795 17.3334 8.50033ZM6.47477 5.97503C6.71885 5.73096 7.11458 5.73096 7.35865 5.97503L9.00006 7.61643L10.6414 5.97505C10.8855 5.73097 11.2812 5.73097 11.5253 5.97505C11.7694 6.21913 11.7694 6.61486 11.5253 6.85893L9.88394 8.50032L11.5253 10.1417C11.7694 10.3858 11.7694 10.7815 11.5253 11.0256C11.2812 11.2696 10.8855 11.2696 10.6414 11.0256L9.00006 9.3842L7.35867 11.0256C7.1146 11.2697 6.71887 11.2697 6.47479 11.0256C6.23071 10.7815 6.23071 10.3858 6.47479 10.1417L8.11617 8.50032L6.47477 6.85892C6.23069 6.61484 6.23069 6.21911 6.47477 5.97503Z" fill="#DEDEE0"/>
</svg>
