<svg width="20" height="20" viewBox="0 0 20 20" fill="none" xmlns="http://www.w3.org/2000/svg">
    <path d="M12.4548 1.04199C11.3151 1.04198 10.3965 1.04196 9.67405 1.1391C8.92396 1.23994 8.29239 1.45569 7.7908 1.95728C7.35335 2.39473 7.13232 2.93229 7.01629 3.56395C6.90355 4.17775 6.88198 4.92891 6.87696 5.83018C6.87504 6.17535 7.1533 6.45673 7.49847 6.45865C7.84365 6.46057 8.12502 6.18231 8.12694 5.83714C8.13202 4.92589 8.15568 4.27999 8.24572 3.78978C8.33249 3.31744 8.4718 3.04405 8.67468 2.84117C8.90532 2.61053 9.22913 2.46016 9.84061 2.37795C10.4701 2.29332 11.3043 2.29199 12.5005 2.29199H13.3338C14.53 2.29199 15.3643 2.29332 15.9937 2.37795C16.6052 2.46016 16.929 2.61053 17.1597 2.84117C17.3903 3.0718 17.5407 3.39561 17.6229 4.00709C17.7075 4.63655 17.7088 5.47081 17.7088 6.66699V13.3337C17.7088 14.5298 17.7075 15.3641 17.6229 15.9936C17.5407 16.605 17.3903 16.9289 17.1597 17.1595C16.929 17.3901 16.6052 17.5405 15.9937 17.6227C15.3643 17.7073 14.53 17.7087 13.3338 17.7087H12.5005C11.3043 17.7087 10.4701 17.7073 9.84061 17.6227C9.22913 17.5405 8.90532 17.3901 8.67468 17.1595C8.4718 16.9566 8.33249 16.6832 8.24572 16.2109C8.15568 15.7207 8.13202 15.0748 8.12694 14.1635C8.12502 13.8183 7.84365 13.5401 7.49847 13.542C7.1533 13.5439 6.87504 13.8253 6.87696 14.1705C6.88198 15.0717 6.90355 15.8229 7.01629 16.4367C7.13232 17.0684 7.35335 17.6059 7.7908 18.0434C8.29239 18.545 8.92396 18.7607 9.67405 18.8616C10.3965 18.9587 11.3151 18.9587 12.4548 18.9587H13.3796C14.5192 18.9587 15.4378 18.9587 16.1603 18.8616C16.9104 18.7607 17.542 18.545 18.0435 18.0434C18.5451 17.5418 18.7609 16.9102 18.8617 16.1601C18.9589 15.4376 18.9589 14.519 18.9588 13.3794V6.62127C18.9589 5.48161 18.9589 4.56301 18.8617 3.84053C18.7609 3.09044 18.5451 2.45888 18.0435 1.95728C17.542 1.45569 16.9104 1.23994 16.1603 1.1391C15.4378 1.04196 14.5192 1.04198 13.3796 1.04199H12.4548Z" fill="#63656B"/>
    <path d="M12.5003 9.37533C12.8455 9.37533 13.1253 9.65515 13.1253 10.0003C13.1253 10.3455 12.8455 10.6253 12.5003 10.6253H3.35653L4.9904 12.0258C5.25248 12.2504 5.28283 12.645 5.05819 12.9071C4.83356 13.1692 4.43899 13.1995 4.17691 12.9749L1.26025 10.4749C1.12172 10.3561 1.04199 10.1828 1.04199 10.0003C1.04199 9.81787 1.12172 9.64453 1.26025 9.52579L4.17691 7.02579C4.43899 6.80115 4.83356 6.8315 5.05819 7.09358C5.28283 7.35566 5.25248 7.75022 4.9904 7.97486L3.35653 9.37533H12.5003Z" fill="#63656B"/>
</svg>
