<svg width="33" height="32" viewBox="0 0 33 32" fill="none" xmlns="http://www.w3.org/2000/svg">
<path fill-rule="evenodd" clip-rule="evenodd" d="M8.24898 5.89881C6.03699 6.90991 4.4165 9.31486 4.4165 12.1827C4.4165 15.1125 5.61546 17.3709 7.33422 19.3062C8.7508 20.9014 10.4656 22.2234 12.138 23.5127C12.5352 23.8189 12.93 24.1233 13.3179 24.4291C14.0193 24.982 14.6449 25.4673 15.248 25.8196C15.8514 26.1722 16.337 26.3332 16.7498 26.3332C17.1626 26.3332 17.6483 26.1722 18.2517 25.8196C18.8547 25.4673 19.4804 24.982 20.1818 24.4291C20.5696 24.1233 20.9645 23.8189 21.3617 23.5127C23.0341 22.2234 24.7489 20.9014 26.1655 19.3062C27.8842 17.3709 29.0832 15.1125 29.0832 12.1827C29.0832 9.31486 27.4627 6.90991 25.2507 5.89881C23.1017 4.91652 20.2143 5.17665 17.4703 8.02753C17.2818 8.22339 17.0217 8.33406 16.7498 8.33406C16.478 8.33406 16.2179 8.22339 16.0293 8.02753C13.2854 5.17665 10.3979 4.91652 8.24898 5.89881ZM16.7498 5.94497C13.6671 3.18687 10.2151 2.80104 7.41752 4.07983C4.46279 5.43045 2.4165 8.56659 2.4165 12.1827C2.4165 15.7367 3.89717 18.448 5.83879 20.6343C7.39367 22.3851 9.2968 23.8505 10.9776 25.1447C11.3586 25.438 11.7282 25.7226 12.0797 25.9997C12.7627 26.5381 13.4959 27.1122 14.2389 27.5464C14.9816 27.9804 15.8293 28.3332 16.7498 28.3332C17.6704 28.3332 18.518 27.9804 19.2607 27.5464C20.0038 27.1122 20.737 26.5381 21.4199 25.9997C21.7715 25.7226 22.1411 25.438 22.5221 25.1447C24.2029 23.8505 26.106 22.3851 27.6609 20.6343C29.6025 18.448 31.0832 15.7367 31.0832 12.1827C31.0832 8.56659 29.0369 5.43045 26.0822 4.07983C23.2846 2.80104 19.8326 3.18687 16.7498 5.94497Z" fill="#1D1D20"/>
</svg>
