<svg width="16" height="17" viewBox="0 0 16 17" fill="none" xmlns="http://www.w3.org/2000/svg">
<path d="M8.00016 12.3333C8.27631 12.3333 8.50016 12.1094 8.50016 11.8333V7.83325C8.50016 7.55711 8.27631 7.33325 8.00016 7.33325C7.72402 7.33325 7.50016 7.55711 7.50016 7.83325V11.8333C7.50016 12.1094 7.72402 12.3333 8.00016 12.3333Z" fill="#63656B"/>
<path d="M8.00016 5.16659C8.36835 5.16659 8.66683 5.46506 8.66683 5.83325C8.66683 6.20144 8.36835 6.49992 8.00016 6.49992C7.63197 6.49992 7.3335 6.20144 7.3335 5.83325C7.3335 5.46506 7.63197 5.16659 8.00016 5.16659Z" fill="#63656B"/>
<path fill-rule="evenodd" clip-rule="evenodd" d="M0.833496 8.49992C0.833496 4.54188 4.04212 1.33325 8.00016 1.33325C11.9582 1.33325 15.1668 4.54188 15.1668 8.49992C15.1668 12.458 11.9582 15.6666 8.00016 15.6666C4.04212 15.6666 0.833496 12.458 0.833496 8.49992ZM8.00016 2.33325C4.59441 2.33325 1.8335 5.09416 1.8335 8.49992C1.8335 11.9057 4.59441 14.6666 8.00016 14.6666C11.4059 14.6666 14.1668 11.9057 14.1668 8.49992C14.1668 5.09416 11.4059 2.33325 8.00016 2.33325Z" fill="#63656B"/>
</svg>
