<svg width="16" height="17" viewBox="0 0 16 17" fill="none" xmlns="http://www.w3.org/2000/svg">
    <path fill-rule="evenodd" clip-rule="evenodd" d="M2.1665 7.26211C2.1665 3.9961 4.76985 1.33325 7.99984 1.33325C11.2298 1.33325 13.8332 3.9961 13.8332 7.26211C13.8332 8.83885 13.3838 10.5319 12.5895 11.9945C11.7961 13.4553 10.6369 14.7247 9.18684 15.4025C8.43355 15.7546 7.56613 15.7546 6.81283 15.4025C5.36275 14.7247 4.20358 13.4553 3.41021 11.9945C2.61586 10.5319 2.1665 8.83885 2.1665 7.26211ZM7.99984 2.33325C5.33879 2.33325 3.1665 4.53157 3.1665 7.26211C3.1665 8.66016 3.56826 10.1902 4.28897 11.5172C5.01066 12.8461 6.03052 13.933 7.23627 14.4966C7.72121 14.7233 8.27847 14.7233 8.76341 14.4966C9.96916 13.933 10.989 12.8461 11.7107 11.5172C12.4314 10.1902 12.8332 8.66016 12.8332 7.26211C12.8332 4.53157 10.6609 2.33325 7.99984 2.33325ZM7.99984 5.66659C7.17141 5.66659 6.49984 6.33816 6.49984 7.16659C6.49984 7.99501 7.17141 8.66659 7.99984 8.66659C8.82826 8.66659 9.49984 7.99501 9.49984 7.16659C9.49984 6.33816 8.82826 5.66659 7.99984 5.66659ZM5.49984 7.16659C5.49984 5.78587 6.61912 4.66659 7.99984 4.66659C9.38055 4.66659 10.4998 5.78587 10.4998 7.16659C10.4998 8.5473 9.38055 9.66659 7.99984 9.66659C6.61912 9.66659 5.49984 8.5473 5.49984 7.16659Z" fill="#63656B"/>
</svg>
