<svg width="33" height="32" viewBox="0 0 33 32" fill="none" xmlns="http://www.w3.org/2000/svg">
<path fill-rule="evenodd" clip-rule="evenodd" d="M14.8433 1.6665H17.6563C19.4798 1.66648 20.9495 1.66645 22.1055 1.82187C23.3056 1.98322 24.3161 2.32842 25.1187 3.13097C25.5167 3.52893 25.8022 3.97802 26.0086 4.476C27.2513 4.63168 28.2946 4.97362 29.1187 5.79771C29.9213 6.60026 30.2665 7.61076 30.4278 8.81091C30.5832 9.96686 30.5832 11.4366 30.5832 13.2601V18.7397C30.5832 20.5632 30.5832 22.033 30.4278 23.1889C30.2665 24.3891 29.9213 25.3996 29.1187 26.2021C28.2946 27.0262 27.2512 27.3681 26.0085 27.5238C25.8021 28.0217 25.5166 28.4708 25.1187 28.8687C24.3161 29.6713 23.3056 30.0165 22.1055 30.1778C20.9495 30.3332 19.4798 30.3332 17.6563 30.3332H14.8433C13.0199 30.3332 11.5501 30.3332 10.3942 30.1778C9.19403 30.0165 8.18353 29.6713 7.38097 28.8687C6.98305 28.4708 6.69757 28.0217 6.49118 27.5238C5.24843 27.3681 4.20507 27.0262 3.38097 26.2021C2.57842 25.3996 2.23322 24.3891 2.07187 23.1889C1.91645 22.033 1.91648 20.5632 1.9165 18.7397V13.2601C1.91648 11.4366 1.91645 9.96686 2.07187 8.81091C2.23322 7.61076 2.57842 6.60026 3.38097 5.79771C4.20506 4.97362 5.2484 4.63168 6.49112 4.476C6.69751 3.97801 6.98301 3.52893 7.38097 3.13097C8.18353 2.32842 9.19403 1.98322 10.3942 1.82187C11.5501 1.66645 13.0199 1.66648 14.8433 1.6665ZM6.02108 6.58713C5.4376 6.72775 5.07384 6.93326 4.79518 7.21192C4.42617 7.58094 4.18557 8.09903 4.05403 9.0774C3.91863 10.0845 3.91651 11.4194 3.91651 13.3332V18.6666C3.91651 20.5805 3.91863 21.9153 4.05403 22.9224C4.18557 23.9008 4.42617 24.4189 4.79518 24.7879C5.07385 25.0666 5.43761 25.2721 6.0211 25.4127C5.91646 24.331 5.91648 23.0045 5.9165 21.4063V10.5933C5.91648 8.9952 5.91646 7.66875 6.02108 6.58713ZM26.4786 25.4127C27.0621 25.2721 27.4258 25.0666 27.7045 24.7879C28.0735 24.4189 28.3141 23.9008 28.4456 22.9224C28.581 21.9153 28.5832 20.5805 28.5832 18.6666V13.3332C28.5832 11.4194 28.581 10.0845 28.4456 9.0774C28.3141 8.09903 28.0735 7.58094 27.7045 7.21192C27.4258 6.93326 27.0621 6.72775 26.4786 6.58714C26.5832 7.66876 26.5832 8.99521 26.5832 10.5933V21.4063C26.5832 23.0045 26.5832 24.331 26.4786 25.4127ZM10.6607 3.80403C9.6823 3.93557 9.1642 4.17617 8.79518 4.54518C8.42617 4.9142 8.18557 5.4323 8.05403 6.41067C7.91863 7.4178 7.9165 8.75262 7.9165 10.6665V21.3332C7.9165 23.2471 7.91863 24.5819 8.05403 25.589C8.18557 26.5674 8.42617 27.0855 8.79518 27.4545C9.1642 27.8235 9.6823 28.0641 10.6607 28.1956C11.6678 28.331 13.0026 28.3332 14.9165 28.3332H17.5832C19.4971 28.3332 20.8319 28.331 21.839 28.1956C22.8174 28.0641 23.3355 27.8235 23.7045 27.4545C24.0735 27.0855 24.3141 26.5674 24.4456 25.589C24.581 24.5819 24.5832 23.2471 24.5832 21.3332V10.6665C24.5832 8.75262 24.581 7.4178 24.4456 6.41067C24.3141 5.4323 24.0735 4.9142 23.7045 4.54518C23.3355 4.17617 22.8174 3.93557 21.839 3.80403C20.8319 3.66863 19.4971 3.66651 17.5832 3.66651H14.9165C13.0026 3.66651 11.6678 3.66863 10.6607 3.80403ZM11.2498 11.9998C11.2498 11.4476 11.6976 10.9998 12.2498 10.9998H20.2498C20.8021 10.9998 21.2498 11.4476 21.2498 11.9998C21.2498 12.5521 20.8021 12.9998 20.2498 12.9998H12.2498C11.6976 12.9998 11.2498 12.5521 11.2498 11.9998ZM11.2498 17.3332C11.2498 16.7809 11.6976 16.3332 12.2498 16.3332H20.2498C20.8021 16.3332 21.2498 16.7809 21.2498 17.3332C21.2498 17.8855 20.8021 18.3332 20.2498 18.3332H12.2498C11.6976 18.3332 11.2498 17.8855 11.2498 17.3332ZM11.2498 22.6665C11.2498 22.1142 11.6976 21.6665 12.2498 21.6665H16.2498C16.8021 21.6665 17.2498 22.1142 17.2498 22.6665C17.2498 23.2188 16.8021 23.6665 16.2498 23.6665H12.2498C11.6976 23.6665 11.2498 23.2188 11.2498 22.6665Z" fill="#1D1D20"/>
</svg>
