<svg width="20" height="20" viewBox="0 0 20 20" fill="none" xmlns="http://www.w3.org/2000/svg">
    <path d="M9.95251 1.04102C8.02885 1.04101 6.52132 1.041 5.34508 1.19914C4.14113 1.361 3.19111 1.69879 2.44544 2.44446C1.69976 3.19014 1.36198 4.14016 1.20011 5.3441C1.04197 6.52034 1.04198 8.02787 1.04199 9.95153V10.0472C1.04198 11.9708 1.04197 13.4784 1.20011 14.6546C1.36198 15.8585 1.69976 16.8086 2.44544 17.5542C3.19111 18.2999 4.14113 18.6377 5.34508 18.7996C6.52132 18.9577 8.02885 18.9577 9.95252 18.9577H10.0481C11.9718 18.9577 13.4793 18.9577 14.6556 18.7996C15.8595 18.6377 16.8095 18.2999 17.5552 17.5542C18.3009 16.8086 18.6387 15.8585 18.8005 14.6546C18.9587 13.4784 18.9587 11.9708 18.9587 10.0472V8.74935C18.9587 8.40417 18.6788 8.12435 18.3337 8.12435C17.9885 8.12435 17.7087 8.40417 17.7087 8.74935V9.99935C17.7087 11.9812 17.7073 13.4047 17.5617 14.488C17.4185 15.5534 17.146 16.1956 16.6713 16.6704C16.1966 17.1451 15.5543 17.4175 14.489 17.5607C13.4057 17.7064 11.9822 17.7077 10.0003 17.7077C8.01847 17.7077 6.59495 17.7064 5.51164 17.5607C4.4463 17.4175 3.80404 17.1451 3.32932 16.6704C2.85461 16.1956 2.5822 15.5534 2.43897 14.488C2.29332 13.4047 2.29199 11.9812 2.29199 9.99935C2.29199 8.0175 2.29332 6.59398 2.43897 5.51066C2.5822 4.44533 2.85461 3.80306 3.32932 3.32835C3.80404 2.85363 4.4463 2.58122 5.51164 2.43799C6.59495 2.29234 8.01847 2.29102 10.0003 2.29102H11.2503C11.5955 2.29102 11.8753 2.01119 11.8753 1.66602C11.8753 1.32084 11.5955 1.04102 11.2503 1.04102H9.95251Z" fill="#333539"/>
    <path fill-rule="evenodd" clip-rule="evenodd" d="M15.8337 1.04102C14.1078 1.04102 12.7087 2.44013 12.7087 4.16602C12.7087 5.89191 14.1078 7.29102 15.8337 7.29102C17.5595 7.29102 18.9587 5.89191 18.9587 4.16602C18.9587 2.44013 17.5595 1.04102 15.8337 1.04102ZM13.9587 4.16602C13.9587 3.13048 14.7981 2.29102 15.8337 2.29102C16.8692 2.29102 17.7087 3.13048 17.7087 4.16602C17.7087 5.20155 16.8692 6.04102 15.8337 6.04102C14.7981 6.04102 13.9587 5.20155 13.9587 4.16602Z" fill="#333539"/>
    <path d="M5.20866 11.666C5.20866 11.3208 5.48848 11.041 5.83366 11.041H13.3337C13.6788 11.041 13.9587 11.3208 13.9587 11.666C13.9587 12.0112 13.6788 12.291 13.3337 12.291H5.83366C5.48848 12.291 5.20866 12.0112 5.20866 11.666Z" fill="#333539"/>
    <path d="M5.83366 13.9577C5.48848 13.9577 5.20866 14.2375 5.20866 14.5827C5.20866 14.9279 5.48848 15.2077 5.83366 15.2077H10.8337C11.1788 15.2077 11.4587 14.9279 11.4587 14.5827C11.4587 14.2375 11.1788 13.9577 10.8337 13.9577H5.83366Z" fill="#333539"/>
</svg>
