<svg width="20" height="20" viewBox="0 0 20 20" fill="none" xmlns="http://www.w3.org/2000/svg">
<path fill-rule="evenodd" clip-rule="evenodd" d="M9.99984 1.0415C7.81371 1.0415 6.0415 2.81371 6.0415 4.99984C6.0415 7.18596 7.81371 8.95817 9.99984 8.95817C12.186 8.95817 13.9582 7.18596 13.9582 4.99984C13.9582 2.81371 12.186 1.0415 9.99984 1.0415ZM7.2915 4.99984C7.2915 3.50407 8.50407 2.2915 9.99984 2.2915C11.4956 2.2915 12.7082 3.50407 12.7082 4.99984C12.7082 6.49561 11.4956 7.70817 9.99984 7.70817C8.50407 7.70817 7.2915 6.49561 7.2915 4.99984Z" fill="#1D1D20"/>
<path fill-rule="evenodd" clip-rule="evenodd" d="M9.99984 10.2082C8.30039 10.2082 6.7311 10.6005 5.56496 11.2668C4.4165 11.9231 3.5415 12.925 3.5415 14.1665C3.5415 15.4081 4.4165 16.4099 5.56496 17.0662C6.7311 17.7325 8.30039 18.1248 9.99984 18.1248C11.6993 18.1248 13.2686 17.7325 14.4347 17.0662C15.5832 16.4099 16.4582 15.4081 16.4582 14.1665C16.4582 12.925 15.5832 11.9231 14.4347 11.2668C13.2686 10.6005 11.6993 10.2082 9.99984 10.2082ZM4.7915 14.1665C4.7915 13.5671 5.22234 12.9023 6.18513 12.3521C7.13025 11.8121 8.47762 11.4582 9.99984 11.4582C11.5221 11.4582 12.8694 11.8121 13.8145 12.3521C14.7773 12.9023 15.2082 13.5671 15.2082 14.1665C15.2082 14.7659 14.7773 15.4307 13.8145 15.9809C12.8694 16.5209 11.5221 16.8748 9.99984 16.8748C8.47762 16.8748 7.13025 16.5209 6.18513 15.9809C5.22234 15.4307 4.7915 14.7659 4.7915 14.1665Z" fill="#1D1D20"/>
</svg>
