<svg width="32" height="32" viewBox="0 0 32 32" fill="none" xmlns="http://www.w3.org/2000/svg">
<path d="M0 16C0 24.8366 7.16344 32 16 32C24.8366 32 32 24.8366 32 16C32 7.16344 24.8366 0 16 0C7.16344 0 0 7.16344 0 16Z" fill="#BAD712"/>
<path d="M14.2782 10.9871L14.765 11.8593C15.2042 12.6464 15.0279 13.679 14.336 14.3709C14.336 14.3709 13.4968 15.2101 15.0184 16.7316C16.5399 18.2531 17.3791 17.414 17.3791 17.414C18.071 16.7221 19.1036 16.5458 19.8907 16.985L20.7629 17.4718C21.9514 18.1351 22.0918 19.8019 21.0471 20.8466C20.4193 21.4744 19.6503 21.9629 18.8002 21.9951C17.3691 22.0493 14.9387 21.6872 12.5008 19.2492C10.0628 16.8113 9.70066 14.3809 9.75491 12.9498C9.78714 12.0997 10.2756 11.3307 10.9034 10.7029C11.9481 9.65821 13.6149 9.79858 14.2782 10.9871Z" fill="white"/>
</svg>
