<svg width="20" height="20" viewBox="0 0 20 20" fill="none" xmlns="http://www.w3.org/2000/svg">
    <path fill-rule="evenodd" clip-rule="evenodd" d="M9.58366 2.29166C5.55658 2.29166 2.29199 5.55625 2.29199 9.58332C2.29199 13.6104 5.55658 16.875 9.58366 16.875C13.6107 16.875 16.8753 13.6104 16.8753 9.58332C16.8753 5.55625 13.6107 2.29166 9.58366 2.29166ZM1.04199 9.58332C1.04199 4.86589 4.86623 1.04166 9.58366 1.04166C14.3011 1.04166 18.1253 4.86589 18.1253 9.58332C18.1253 14.3008 14.3011 18.125 9.58366 18.125C4.86623 18.125 1.04199 14.3008 1.04199 9.58332ZM16.2251 16.2247C16.4691 15.9806 16.8649 15.9806 17.1089 16.2247L18.7756 17.8914C19.0197 18.1355 19.0197 18.5312 18.7756 18.7753C18.5315 19.0193 18.1358 19.0193 17.8917 18.7753L16.2251 17.1086C15.981 16.8645 15.981 16.4688 16.2251 16.2247Z" fill="#DEDEE0"/>
</svg>
