<svg width="20" height="20" viewBox="0 0 20 20" fill="none" xmlns="http://www.w3.org/2000/svg">
<path fill-rule="evenodd" clip-rule="evenodd" d="M9.99992 6.87484C8.27403 6.87484 6.87492 8.27395 6.87492 9.99984C6.87492 11.7257 8.27403 13.1248 9.99992 13.1248C11.7258 13.1248 13.1249 11.7257 13.1249 9.99984C13.1249 8.27395 11.7258 6.87484 9.99992 6.87484ZM8.12492 9.99984C8.12492 8.9643 8.96439 8.12484 9.99992 8.12484C11.0355 8.12484 11.8749 8.9643 11.8749 9.99984C11.8749 11.0354 11.0355 11.8748 9.99992 11.8748C8.96439 11.8748 8.12492 11.0354 8.12492 9.99984Z" fill="#1D1D20"/>
<path fill-rule="evenodd" clip-rule="evenodd" d="M9.97887 1.0415C9.60849 1.0415 9.29929 1.04149 9.04544 1.05881C8.78119 1.07684 8.53159 1.11571 8.2896 1.21595C7.72807 1.44854 7.28194 1.89467 7.04935 2.45619C6.92827 2.74852 6.89547 3.0566 6.88295 3.39147C6.87289 3.66066 6.73703 3.88526 6.53654 4.00101C6.33606 4.11676 6.07363 4.12211 5.83547 3.99624C5.5392 3.83964 5.25599 3.714 4.94228 3.6727C4.33969 3.59337 3.73027 3.75666 3.24808 4.12666C3.04028 4.28611 2.88181 4.48284 2.73407 4.70267C2.59215 4.91385 2.43756 5.18162 2.25237 5.50239L2.23132 5.53884C2.04613 5.8596 1.89152 6.12737 1.7796 6.35586C1.66309 6.59373 1.57195 6.82933 1.53776 7.08901C1.45843 7.6916 1.62172 8.30102 1.99172 8.78321C2.18432 9.03421 2.43469 9.21664 2.71839 9.3949C2.94654 9.53825 3.07315 9.76826 3.07314 9.99982C3.07313 10.2314 2.94652 10.4613 2.7184 10.6047C2.43466 10.7829 2.18426 10.9654 1.99164 11.2164C1.62164 11.6986 1.45835 12.308 1.53768 12.9106C1.57187 13.1703 1.66301 13.4059 1.77952 13.6438C1.89144 13.8722 2.04604 14.14 2.23123 14.4608L2.25229 14.4972C2.43747 14.818 2.59207 15.0858 2.73399 15.2969C2.88173 15.5168 3.0402 15.7135 3.248 15.873C3.73019 16.243 4.33961 16.4063 4.9422 16.3269C5.25589 16.2856 5.53908 16.16 5.83534 16.0034C6.07353 15.8775 6.33599 15.8829 6.53651 15.9986C6.73702 16.1144 6.87288 16.339 6.88295 16.6082C6.89548 16.9431 6.92827 17.2512 7.04935 17.5435C7.28194 18.105 7.72807 18.5511 8.2896 18.7837C8.53159 18.884 8.78119 18.9228 9.04544 18.9409C9.29928 18.9582 9.60848 18.9582 9.97886 18.9582H10.021C10.3913 18.9582 10.7005 18.9582 10.9544 18.9409C11.2186 18.9228 11.4682 18.884 11.7102 18.7837C12.2718 18.5511 12.7179 18.105 12.9505 17.5435C13.0716 17.2511 13.1044 16.9431 13.1169 16.6082C13.1269 16.339 13.2628 16.1144 13.4633 15.9986C13.6638 15.8828 13.9262 15.8775 14.1644 16.0034C14.4607 16.1599 14.7439 16.2856 15.0575 16.3269C15.6601 16.4062 16.2696 16.2429 16.7517 15.8729C16.9595 15.7135 17.118 15.5167 17.2658 15.2969C17.4077 15.0857 17.5623 14.818 17.7474 14.4972L17.7685 14.4607C17.9537 14.14 18.1083 13.8722 18.2202 13.6437C18.3367 13.4058 18.4279 13.1702 18.4621 12.9105C18.5414 12.308 18.3781 11.6985 18.0081 11.2163C17.8155 10.9653 17.5651 10.7829 17.2814 10.6046C17.0533 10.4613 16.9267 10.2313 16.9267 9.99979C16.9267 9.76829 17.0533 9.53835 17.2814 9.39504C17.5651 9.21675 17.8156 9.03431 18.0082 8.78327C18.3782 8.30108 18.5415 7.69166 18.4621 7.08907C18.428 6.82938 18.3368 6.59378 18.2203 6.35592C18.1084 6.12744 17.9538 5.85969 17.7686 5.53897L17.7476 5.50248C17.5624 5.18172 17.4078 4.91391 17.2658 4.70273C17.1181 4.4829 16.9596 4.28617 16.7518 4.12672C16.2696 3.75672 15.6602 3.59342 15.0576 3.67276C14.7439 3.71405 14.4607 3.83969 14.1645 3.99627C13.9263 4.12216 13.6638 4.11681 13.4633 4.00104C13.2628 3.88527 13.1269 3.66065 13.1169 3.39143C13.1043 3.05657 13.0716 2.7485 12.9505 2.45619C12.7179 1.89467 12.2718 1.44854 11.7102 1.21595C11.4682 1.11571 11.2186 1.07684 10.9544 1.05881C10.7005 1.04149 10.3913 1.0415 10.021 1.0415H9.97887ZM8.76795 2.3708C8.83224 2.34416 8.92992 2.3196 9.13053 2.30591C9.33675 2.29184 9.60308 2.2915 9.99991 2.2915C10.3967 2.2915 10.6631 2.29184 10.8693 2.30591C11.0699 2.3196 11.1676 2.34416 11.2319 2.3708C11.4871 2.47652 11.6899 2.67931 11.7956 2.93454C11.829 3.01505 11.8566 3.14056 11.8677 3.43815C11.8924 4.09846 12.2333 4.73424 12.8383 5.08357C13.4434 5.4329 14.1644 5.41017 14.7486 5.1014C15.0119 4.96225 15.1344 4.92344 15.2208 4.91206C15.4947 4.876 15.7717 4.95023 15.9909 5.11841C16.0461 5.16077 16.1162 5.23308 16.2284 5.39997C16.3437 5.57153 16.4771 5.802 16.6755 6.14567C16.8739 6.48934 17.0068 6.72016 17.0977 6.90578C17.1862 7.08636 17.2138 7.18323 17.2228 7.25223C17.2589 7.52613 17.1847 7.80314 17.0165 8.02232C16.9634 8.09146 16.8686 8.17816 16.6164 8.33662C16.0569 8.68813 15.6767 9.30113 15.6767 9.99973C15.6767 10.6984 16.0568 11.3115 16.6164 11.663C16.8685 11.8215 16.9634 11.9082 17.0164 11.9773C17.1846 12.1965 17.2588 12.4735 17.2228 12.7474C17.2137 12.8164 17.1861 12.9133 17.0977 13.0938C17.0067 13.2795 16.8739 13.5103 16.6754 13.8539C16.477 14.1976 16.3436 14.4281 16.2283 14.5996C16.1161 14.7665 16.046 14.8388 15.9908 14.8812C15.7716 15.0494 15.4946 15.1236 15.2207 15.0876C15.1343 15.0762 15.0118 15.0374 14.7485 14.8982C14.1643 14.5895 13.4433 14.5667 12.8382 14.9161C12.2332 15.2655 11.8924 15.9012 11.8677 16.5615C11.8566 16.8591 11.829 16.9846 11.7956 17.0651C11.6899 17.3204 11.4871 17.5232 11.2319 17.6289C11.1676 17.6555 11.0699 17.6801 10.8693 17.6938C10.6631 17.7078 10.3967 17.7082 9.99991 17.7082C9.60308 17.7082 9.33675 17.7078 9.13053 17.6938C8.92992 17.6801 8.83224 17.6555 8.76795 17.6289C8.51271 17.5232 8.30993 17.3204 8.2042 17.0651C8.17086 16.9846 8.14321 16.8591 8.13208 16.5615C8.10738 15.9012 7.76656 15.2654 7.1615 14.9161C6.55645 14.5668 5.83543 14.5895 5.25124 14.8983C4.98796 15.0374 4.86544 15.0762 4.77904 15.0876C4.50514 15.1237 4.22813 15.0494 4.00895 14.8813C3.95374 14.8389 3.88362 14.7666 3.77147 14.5997C3.65617 14.4282 3.52272 14.1977 3.3243 13.854C3.12588 13.5103 2.99301 13.2795 2.90209 13.0939C2.81364 12.9133 2.78607 12.8164 2.77699 12.7474C2.74093 12.4735 2.81515 12.1965 2.98333 11.9774C3.03638 11.9082 3.13126 11.8215 3.38342 11.6631C3.94291 11.3116 4.3231 10.6985 4.32314 9.99989C4.32318 9.30117 3.94296 8.68806 3.38343 8.33649C3.13132 8.17808 3.03646 8.09139 2.98341 8.02226C2.81523 7.80308 2.74101 7.52607 2.77707 7.25217C2.78615 7.18317 2.81372 7.0863 2.90217 6.90573C2.99309 6.7201 3.12596 6.48928 3.32438 6.14561C3.5228 5.80194 3.65626 5.57147 3.77155 5.39991C3.88371 5.23303 3.95382 5.16071 4.00903 5.11835C4.22821 4.95017 4.50522 4.87594 4.77912 4.912C4.86553 4.92338 4.98805 4.9622 5.25136 5.10137C5.83553 5.41013 6.55651 5.43285 7.16154 5.08355C7.76657 4.73424 8.10739 4.09848 8.13208 3.43819C8.14321 3.14058 8.17085 3.01506 8.2042 2.93454C8.30993 2.67931 8.51271 2.47652 8.76795 2.3708Z" fill="#1D1D20"/>
</svg>
