<svg width="20" height="20" viewBox="0 0 20 20" fill="none" xmlns="http://www.w3.org/2000/svg">
    <path fill-rule="evenodd" clip-rule="evenodd" d="M5.07308 1.35643C5.62226 1.03467 6.26152 0.964808 6.85435 1.12073L7.26276 1.22814C7.74432 1.35479 8.1554 1.66347 8.42173 2.08375C9.17827 3.27761 10.8217 3.27761 11.5783 2.08375C11.8446 1.66348 12.2557 1.35479 12.7372 1.22814L13.1457 1.12073C13.7385 0.964808 14.3777 1.03467 14.9269 1.35643C15.3555 1.6075 15.9442 1.97127 16.3749 2.31648C16.5019 2.41833 16.6303 2.53051 16.7564 2.64711L16.7902 2.67832C17.1516 3.01216 17.4776 3.31336 17.7048 3.60752C17.9616 3.94007 18.1276 4.30593 18.125 4.76635C18.1222 5.24276 17.9274 5.61964 17.6513 5.95813C17.4002 6.26585 17.0398 6.5908 16.6285 6.96169L16.4405 7.13116C15.9888 7.53845 15.9113 7.62561 15.8683 7.72408C15.8234 7.82667 15.8111 7.95397 15.8111 8.57891L15.8111 15.2592C15.8111 15.7771 15.8112 16.228 15.7583 16.6057C15.7004 17.0197 15.5748 17.3889 15.3004 17.7324C14.7786 18.3856 14.1098 18.5077 13.317 18.6524C13.2815 18.6589 13.2458 18.6654 13.2098 18.672C12.3501 18.8302 11.2649 18.9576 10 18.9576C8.73512 18.9576 7.64991 18.8302 6.7902 18.672C6.75423 18.6654 6.71852 18.6589 6.68305 18.6524C5.8902 18.5077 5.22137 18.3856 4.69962 17.7324C4.42525 17.3889 4.2996 17.0197 4.24168 16.6057C4.18883 16.228 4.18886 15.7771 4.18889 15.2592L4.18889 8.57891C4.18889 7.95397 4.17659 7.82668 4.13174 7.72407C4.08869 7.62561 4.01116 7.53845 3.55948 7.13116L3.40508 6.99193C3.39386 6.98181 3.38268 6.97173 3.37153 6.96168C2.96017 6.59079 2.59975 6.26584 2.34871 5.95813C2.07256 5.61964 1.87778 5.24276 1.87503 4.76635C1.87238 4.30593 2.03839 3.94007 2.29523 3.60752C2.52243 3.31336 2.84844 3.01216 3.20979 2.67831C3.22101 2.66794 3.23227 2.65754 3.24356 2.64711C3.36973 2.53051 3.49807 2.41833 3.62513 2.31648C4.05581 1.97127 4.64454 1.6075 5.07308 1.35643ZM6.5364 2.32961C6.24611 2.25326 5.95108 2.29076 5.70497 2.43495C5.28361 2.68182 4.76189 3.0073 4.40692 3.29183C4.30791 3.37119 4.20211 3.46332 4.09192 3.56514C3.68601 3.94025 3.43979 4.17055 3.28453 4.37159C3.15185 4.54337 3.12435 4.6451 3.12501 4.75914C3.12558 4.85719 3.15249 4.96597 3.31728 5.16795C3.50036 5.39237 3.78728 5.65342 4.24218 6.06362L4.39658 6.20285C4.41973 6.22372 4.44274 6.2444 4.46557 6.26492C4.80846 6.57312 5.11211 6.84605 5.27706 7.22335C5.44032 7.59678 5.4397 8.0091 5.43899 8.48335C5.43894 8.51493 5.43889 8.54678 5.43889 8.57891V15.2201C5.43889 15.7884 5.44028 16.1513 5.47962 16.4325C5.51521 16.6869 5.5766 16.8275 5.67629 16.9523C5.87934 17.2065 6.06787 17.2682 7.01633 17.4427C7.80978 17.5886 8.81899 17.7076 10 17.7076C11.181 17.7076 12.1902 17.5886 12.9837 17.4427C13.9321 17.2682 14.1207 17.2065 14.3237 16.9523C14.4234 16.8275 14.4848 16.6869 14.5204 16.4325C14.5597 16.1513 14.5611 15.7884 14.5611 15.2201V8.57891C14.5611 8.54678 14.5611 8.51493 14.561 8.48335C14.5603 8.0091 14.5597 7.59678 14.7229 7.22335C14.8879 6.84605 15.1915 6.57312 15.5344 6.26492C15.5573 6.2444 15.5803 6.22372 15.6034 6.20285L15.7578 6.06362C16.2127 5.65342 16.4996 5.39237 16.6827 5.16795C16.8475 4.96597 16.8744 4.85719 16.875 4.75914C16.8756 4.6451 16.8481 4.54337 16.7155 4.37159C16.5602 4.17055 16.314 3.94025 15.9081 3.56514C15.7979 3.46332 15.6921 3.37119 15.5931 3.29183C15.2381 3.00731 14.7164 2.68182 14.295 2.43495C14.0489 2.29076 13.7539 2.25326 13.4636 2.32961L13.0552 2.43703C12.8899 2.4805 12.7376 2.58948 12.6341 2.75284C11.3868 4.72125 8.61325 4.72125 7.36588 2.75284C7.26235 2.58948 7.11009 2.4805 6.94481 2.43703L6.5364 2.32961Z" fill="#333539"/>
</svg>
