<svg width="20" height="20" viewBox="0 0 20 20" fill="none" xmlns="http://www.w3.org/2000/svg">
<path d="M7.50008 9.99935C7.50008 10.4596 7.12699 10.8327 6.66675 10.8327C6.20651 10.8327 5.83341 10.4596 5.83341 9.99935C5.83341 9.53911 6.20651 9.16602 6.66675 9.16602C7.12699 9.16602 7.50008 9.53911 7.50008 9.99935Z" fill="#333539"/>
<path d="M10.8334 9.99935C10.8334 10.4596 10.4603 10.8327 10.0001 10.8327C9.53984 10.8327 9.16675 10.4596 9.16675 9.99935C9.16675 9.53911 9.53984 9.16602 10.0001 9.16602C10.4603 9.16602 10.8334 9.53911 10.8334 9.99935Z" fill="#333539"/>
<path d="M14.1667 9.99935C14.1667 10.4596 13.7937 10.8327 13.3334 10.8327C12.8732 10.8327 12.5001 10.4596 12.5001 9.99935C12.5001 9.53911 12.8732 9.16602 13.3334 9.16602C13.7937 9.16602 14.1667 9.53911 14.1667 9.99935Z" fill="#333539"/>
<path fill-rule="evenodd" clip-rule="evenodd" d="M18.9584 9.99935C18.9584 5.0518 14.9476 1.04102 10.0001 1.04102C5.05253 1.04102 1.04175 5.0518 1.04175 9.99935C1.04175 11.4313 1.37817 12.7864 1.97685 13.9884C2.06619 14.1678 2.08514 14.3509 2.04392 14.505L1.54758 16.36C1.20781 17.6299 2.36955 18.7916 3.63942 18.4519L5.49445 17.9555C5.64853 17.9143 5.83167 17.9332 6.01104 18.0226C7.21302 18.6213 8.56816 18.9577 10.0001 18.9577C14.9476 18.9577 18.9584 14.9469 18.9584 9.99935ZM10.0001 2.29102C14.2573 2.29102 17.7084 5.74215 17.7084 9.99935C17.7084 14.2565 14.2573 17.7077 10.0001 17.7077C8.76587 17.7077 7.60109 17.4181 6.56834 16.9037C6.15384 16.6972 5.65819 16.6177 5.17136 16.748L3.31633 17.2443C2.97563 17.3355 2.66394 17.0238 2.7551 16.6831L3.25144 14.8281C3.3817 14.3412 3.3022 13.8456 3.09574 13.4311C2.58135 12.3983 2.29175 11.2336 2.29175 9.99935C2.29175 5.74215 5.74289 2.29102 10.0001 2.29102Z" fill="#333539"/>
</svg>
