<svg width="16" height="16" viewBox="0 0 16 16" fill="none" xmlns="http://www.w3.org/2000/svg">
    <g clip-path="url(#clip0_1947_41942)">
        <path fill-rule="evenodd" clip-rule="evenodd" d="M7.99967 1.83337C4.59392 1.83337 1.83301 4.59428 1.83301 8.00004C1.83301 11.4058 4.59392 14.1667 7.99967 14.1667C11.4054 14.1667 14.1663 11.4058 14.1663 8.00004C14.1663 4.59428 11.4054 1.83337 7.99967 1.83337ZM0.833008 8.00004C0.833008 4.042 4.04163 0.833374 7.99967 0.833374C11.9577 0.833374 15.1663 4.042 15.1663 8.00004C15.1663 11.9581 11.9577 15.1667 7.99967 15.1667C4.04163 15.1667 0.833008 11.9581 0.833008 8.00004ZM7.99967 4.83337C8.27582 4.83337 8.49967 5.05723 8.49967 5.33337V7.79293L10.0199 9.31315C10.2152 9.50842 10.2152 9.825 10.0199 10.0203C9.82463 10.2155 9.50805 10.2155 9.31279 10.0203L7.64612 8.35359C7.55235 8.25983 7.49967 8.13265 7.49967 8.00004V5.33337C7.49967 5.05723 7.72353 4.83337 7.99967 4.83337Z" fill="#1C274C"/>
    </g>
    <defs>
        <clipPath id="clip0_1947_41942">
            <rect width="16" height="16" fill="white"/>
        </clipPath>
    </defs>
</svg>
